<?xml version="1.0" encoding="utf-8"?>
<!-- Generator: Adobe Illustrator 23.0.2, SVG Export Plug-In . SVG Version: 6.00 Build 0)  -->
<svg version="1.1" id="Layer_1" xmlns="http://www.w3.org/2000/svg" xmlns:xlink="http://www.w3.org/1999/xlink" x="0px" y="0px"
	 viewBox="0 0 20 20" style="enable-background:new 0 0 20 20;" xml:space="preserve">
<style type="text/css">
	.Drop_x0020_Shadow{fill:none;}
	.Round_x0020_Corners_x0020_2_x0020_pt{fill:#FFFFFF;stroke:#000000;stroke-miterlimit:10;}
	.Live_x0020_Reflect_x0020_X{fill:none;}
	.Bevel_x0020_Soft{fill:url(#SVGID_1_);}
	.Dusk{fill:#FFFFFF;}
	.Foliage_GS{fill:#FFDD00;}
	.Pompadour_GS{fill-rule:evenodd;clip-rule:evenodd;fill:#44ADE2;}
	.st0{fill:#FFFFFF;}
	.st1{fill:#BABABA;}
</style>
<linearGradient id="SVGID_1_" gradientUnits="userSpaceOnUse" x1="0" y1="0" x2="0.7071" y2="0.7071">
	<stop  offset="0" style="stop-color:#DEDFE3"/>
	<stop  offset="0.1738" style="stop-color:#D8D9DD"/>
	<stop  offset="0.352" style="stop-color:#C9CACD"/>
	<stop  offset="0.5323" style="stop-color:#B4B5B8"/>
	<stop  offset="0.7139" style="stop-color:#989A9C"/>
	<stop  offset="0.8949" style="stop-color:#797C7E"/>
	<stop  offset="1" style="stop-color:#656B6C"/>
</linearGradient>
<g>
	<circle class="st0" cx="9.99" cy="10.05" r="9.45"/>
	<path class="st1" d="M9.99,19.75c-5.35,0-9.7-4.35-9.7-9.7c0-5.35,4.35-9.7,9.7-9.7c5.35,0,9.7,4.35,9.7,9.7
		C19.68,15.4,15.33,19.75,9.99,19.75z M9.99,0.86c-5.07,0-9.2,4.13-9.2,9.2c0,5.07,4.13,9.2,9.2,9.2c5.07,0,9.2-4.13,9.2-9.2
		C19.18,4.98,15.06,0.86,9.99,0.86z"/>
</g>
<g>
	<path class="st1" d="M3.9,9.63h5.58v-6h1.02v6h5.58v0.9H10.5v5.94H9.48v-5.94H3.9V9.63z"/>
</g>
</svg>
