<?xml version="1.0" encoding="utf-8"?>
<!-- Generator: Adobe Illustrator 23.0.2, SVG Export Plug-In . SVG Version: 6.00 Build 0)  -->
<svg version="1.1" id="Layer_1" xmlns="http://www.w3.org/2000/svg" xmlns:xlink="http://www.w3.org/1999/xlink" x="0px" y="0px"
	 viewBox="0 0 28 24" style="enable-background:new 0 0 28 24;" xml:space="preserve">
<style type="text/css">
	.st0{fill:#C6C5C4;}
	.st1{fill:#B12F2B;}
	.st2{fill:none;}
	.st3{fill:#C1C1C1;}
	.st4{fill:#A61E22;}
	.st5{fill:#C2C2C2;}
	.st6{fill:#A81812;}
	.st7{fill:#C79571;}
	.st8{fill:#A7C976;}
	.st9{fill:#FFFFFF;}
	.st10{fill:#EEE3D6;}
	.st11{fill:#CBCBCB;}
	.st12{fill:none;stroke:#000000;stroke-width:0.5;stroke-miterlimit:10;}
	.st13{clip-path:url(#SVGID_2_);fill:#C1C1C1;}
	.st14{clip-path:url(#SVGID_2_);fill:#A81812;}
	.st15{fill:#71D45B;}
	.st16{fill:#D1D1D1;}
</style>
<g>
	<g>
		<g>
			<circle class="st1" cx="10.4" cy="8.1" r="1.8"/>
			<path class="st1" d="M24.9,14.6c-0.8-0.8-1.9-1.3-3-1.4v-9c0-1-0.4-1.8-1-2.5c-0.6-0.6-1.5-1-2.5-1H4.2c-1,0-1.8,0.4-2.5,1
				c-0.6,0.6-1,1.5-1,2.5v11.3v1.1v2.3c0,1,0.4,1.8,1,2.5c0.6,0.6,1.5,1,2.5,1H18c0.9,0.7,2,1.2,3.3,1.2c1.4,0,2.7-0.6,3.7-1.5
				c0.9-0.9,1.5-2.2,1.5-3.7C26.4,16.8,25.9,15.5,24.9,14.6z M2.1,4.2c0-0.6,0.2-1.1,0.6-1.5c0.4-0.4,0.9-0.6,1.5-0.6h14.2
				c0.6,0,1.1,0.2,1.5,0.6s0.6,0.9,0.6,1.5v7.6L17,8.2C16.7,8,16.3,8,16,8.2l-5.5,5.5L6.9,10c-0.2-0.2-0.7-0.3-0.9,0l-3.9,3.9V4.2z
				 M4.2,21L4.2,21c-0.6,0-1.1-0.3-1.5-0.7c-0.4-0.4-0.6-0.9-0.6-1.5v-2.3v-0.8l4.3-4.4l3.7,3.7c0.2,0.2,0.7,0.2,0.9,0l5.5-5.5
				l3.6,3.6c-0.1,0-0.1,0-0.2,0.1c-0.1,0-0.2,0-0.3,0.1c-0.1,0-0.2,0.1-0.3,0.1c-0.1,0-0.1,0-0.2,0.1c-0.1,0-0.2,0.1-0.2,0.1
				c-0.1,0.1-0.2,0.1-0.4,0.2c-0.1,0-0.1,0.1-0.2,0.1c0,0-0.1,0-0.1,0.1c-0.2,0.1-0.4,0.3-0.6,0.5c-0.9,0.9-1.5,2.2-1.5,3.7
				c0,0.4,0,0.7,0.1,1.1c0,0.1,0,0.2,0.1,0.3c0.1,0.2,0.1,0.5,0.2,0.7v0c0.1,0.2,0.2,0.4,0.3,0.6H4.2z M24,21
				c-0.7,0.7-1.7,1.1-2.7,1.1c-1,0-2-0.4-2.7-1.1c-0.1-0.1-0.2-0.2-0.3-0.3c-0.1-0.1-0.1-0.2-0.2-0.2c-0.1-0.1-0.2-0.3-0.2-0.4
				c0-0.1-0.1-0.2-0.1-0.3c0-0.1-0.1-0.3-0.1-0.4c0-0.1-0.1-0.2-0.1-0.3c0-0.2-0.1-0.5-0.1-0.8c0-1.1,0.4-2,1.1-2.7
				c0.7-0.7,1.7-1.1,2.7-1.1s2,0.4,2.7,1.1c0.7,0.7,1.1,1.7,1.1,2.7C25.1,19.4,24.7,20.3,24,21z"/>
			<path class="st1" d="M21.7,15.7c0,0-0.1-0.1-0.2-0.1c-0.1,0-0.1,0-0.2,0c0,0,0,0,0,0c0,0,0,0,0,0c-0.1,0-0.1,0-0.2,0
				s-0.1,0.1-0.2,0.1l-1.5,1.5c-0.2,0.2-0.2,0.7,0,0.9c0.2,0.2,0.7,0.2,0.9,0l0.4-0.4v2.7c0,0.4,0.3,0.7,0.7,0.7s0.7-0.3,0.7-0.7
				v-2.7l0.4,0.4c0.2,0.2,0.7,0.2,0.9,0c0.2-0.2,0.2-0.7,0-0.9L21.7,15.7z"/>
		</g>
	</g>
</g>
</svg>
